<svg xmlns="http://www.w3.org/2000/svg" xmlns:xlink="http://www.w3.org/1999/xlink" width="512" height="512" viewBox="0 0 512 512">
  <defs>
    <linearGradient id="linear-gradient" x1="-7.075" y1="0.283" x2="-7.075" y2="0.281" gradientUnits="objectBoundingBox">
      <stop offset="0.2" stop-opacity="0.149"/>
      <stop offset="0.85" stop-color="#616161" stop-opacity="0.012"/>
    </linearGradient>
    <linearGradient id="linear-gradient-2" x1="-5.425" y1="0.364" x2="-5.424" y2="0.364" gradientUnits="objectBoundingBox">
      <stop offset="0.2" stop-opacity="0.549"/>
      <stop offset="0.85" stop-color="#616161" stop-opacity="0.012"/>
    </linearGradient>
    <clipPath id="clip-custom_1">
      <rect width="512" height="512"/>
    </clipPath>
  </defs>
  <g id="custom_1" data-name="custom – 1" clip-path="url(#clip-custom_1)">
    <g id="flutter" transform="translate(70 67)">
      <path id="Path_6" data-name="Path 6" d="M58.082,246.66,0,188.577,188.593,0h116.15m0,174.019H188.593l-43.508,43.508,58.082,58.082" fill="rgba(66,165,245,0.8)"/>
      <path id="Path_7" data-name="Path 7" d="M951.7,1865.967l43.508,43.509h116.15L1009.782,1807.9" transform="translate(-806.616 -1532.29)" fill="#0d47a1"/>
      <path id="Path_8" data-name="Path 8" d="M571.6,1485.606l57.991-58.006,57.991,57.991L629.591,1543.6Z" transform="translate(-484.461 -1209.966)" fill="#42a5f5"/>
      <path id="Path_9" data-name="Path 9" d="M952,1866.091l57.991-57.991,8.095,8.095-57.991,57.991Z" transform="translate(-806.87 -1532.46)" fill="url(#linear-gradient)"/>
      <path id="Path_10" data-name="Path 10" d="M951.7,1865.883l86.178-29.773-28.1-28.309" transform="translate(-806.616 -1532.206)" fill="url(#linear-gradient-2)"/>
    </g>
    <g id="nerd" transform="translate(110 99)">
      <path id="Shape_2_" d="M19.8,55.446H18.6A16.179,16.179,0,0,1,3.08,41.8,17.065,17.065,0,0,0,19.8,55.446Z" transform="translate(10.054 133.186)" fill="#b0d3f0"/>
      <path id="Shape_3_" d="M3.08,14.646A16.179,16.179,0,0,1,18.6,1H19.8A17.065,17.065,0,0,0,3.08,14.646Z" transform="translate(10.054)" fill="#b0d3f0"/>
      <path id="Shape_5_" d="M34,44Z" transform="translate(110.988 140.368)" fill="#607d8b"/>
      <path id="Shape_10_" d="M107.619,58.3a53.324,53.324,0,0,1-53.3,53.3,52.608,52.608,0,0,1-6.4-.384,53.3,53.3,0,0,1,0-105.842A52.608,52.608,0,0,1,54.314,5,53.324,53.324,0,0,1,107.619,58.3Z" transform="translate(3.255 13.057)" fill="#cfd8dc"/>
      <path id="Shape_11_" d="M140.619,58.3a53.324,53.324,0,0,1-53.3,53.3,52.608,52.608,0,0,1-6.4-.384,53.3,53.3,0,0,1,0-105.842A52.608,52.608,0,0,1,87.314,5,53.324,53.324,0,0,1,140.619,58.3Z" transform="translate(110.979 13.057)" fill="#cfd8dc"/>
      <ellipse id="Oval" cx="46.908" cy="52.921" rx="46.908" ry="52.921" transform="translate(4.264 18.441)" fill="#f5f5f5"/>
      <ellipse id="Oval_1_" cx="46.908" cy="52.921" rx="46.908" ry="52.921" transform="translate(144.988 18.441)" fill="#f5f5f5"/>
      <circle id="Oval_2_" cx="23.5" cy="23.5" r="23.5" transform="translate(43 52)" fill="#37474f"/>
      <circle id="Oval_3_" cx="8.5" cy="8.5" r="8.5" transform="translate(60 69)" fill="#fff"/>
      <circle id="Oval_4_" cx="23.5" cy="23.5" r="23.5" transform="translate(166 52)" fill="#37474f"/>
      <circle id="Oval_5_" cx="8.5" cy="8.5" r="8.5" transform="translate(179 69)" fill="#fff"/>
      <path id="Shape_22_" d="M57.569,119.138a57.569,57.569,0,1,1,57.569-57.569A57.568,57.568,0,0,1,57.569,119.138Zm0-106.609a49.04,49.04,0,1,0,49.04,49.04A49.042,49.042,0,0,0,57.569,12.529Z" transform="translate(0 9.793)"/>
      <path id="Shape_23_" d="M36.718,67.437A27.718,27.718,0,1,1,64.437,39.718,27.718,27.718,0,0,1,36.718,67.437Zm0-46.908a19.19,19.19,0,1,0,19.19,19.19A19.191,19.191,0,0,0,36.718,20.529Z" transform="translate(29.379 35.908)"/>
      <path id="Shape_24_" d="M25.793,41.586A12.793,12.793,0,1,1,38.586,28.793,12.792,12.792,0,0,1,25.793,41.586Zm0-17.057a4.264,4.264,0,1,0,4.264,4.264A4.266,4.266,0,0,0,25.793,24.529Z" transform="translate(42.437 48.965)"/>
      <path id="Shape_25_" d="M90.569,119.138a57.569,57.569,0,1,1,57.569-57.569A57.568,57.568,0,0,1,90.569,119.138Zm0-106.609a49.04,49.04,0,1,0,49.04,49.04A49.042,49.042,0,0,0,90.569,12.529Z" transform="translate(107.724 9.793)"/>
      <path id="Shape_26_" d="M65.718,67.437A27.718,27.718,0,1,1,93.437,39.718,27.718,27.718,0,0,1,65.718,67.437Zm0-46.908a19.19,19.19,0,1,0,19.19,19.19A19.191,19.191,0,0,0,65.718,20.529Z" transform="translate(124.046 35.908)"/>
      <path id="Shape_27_" d="M53.793,41.586A12.793,12.793,0,1,1,66.586,28.793,12.792,12.792,0,0,1,53.793,41.586Zm0-17.057a4.264,4.264,0,1,0,4.264,4.264A4.266,4.266,0,0,0,53.793,24.529Z" transform="translate(133.839 48.965)"/>
      <path id="Shape_31_" d="M64.736,27.3a4.252,4.252,0,0,1-2.849-1.092,23.327,23.327,0,0,0-14.976-4.665,23.307,23.307,0,0,0-14.972,4.665,4.267,4.267,0,1,1-5.706-6.345,31.149,31.149,0,0,1,20.678-6.849,31.149,31.149,0,0,1,20.678,6.849A4.266,4.266,0,0,1,64.736,27.3Z" transform="translate(81.02 39.156)"/>
    </g>
  </g>
</svg>
